<svg width="200" height="79" viewBox="0 0 200 79" fill="none" xmlns="http://www.w3.org/2000/svg">
<g clip-path="url(#clip0_3483_3032)">
<path d="M43.4032 5.8963C43.6494 6.08367 43.9753 6.10681 44.2408 5.97958L47.1231 8.18874L48.6584 24.8951C48.4025 25.0362 48.2383 25.3092 48.2673 25.6076C48.3059 26.0194 48.6825 26.3224 49.1122 26.2854C49.5419 26.2484 49.8581 25.8875 49.8195 25.4758C49.7929 25.175 49.5805 24.9345 49.3029 24.8396L48.977 21.2934L59.2847 13.0142L62.9539 13.4052C63.0457 13.6735 63.2943 13.8817 63.6057 13.9141C64.033 13.9603 64.4192 13.6642 64.4675 13.2548C64.5158 12.8453 64.2068 12.4752 63.7795 12.429C63.4681 12.3966 63.1784 12.5446 63.0263 12.7875L59.0819 12.3688L48.907 20.5416L47.7435 7.86951L44.6463 5.49379C44.7188 5.21851 44.6246 4.91779 44.3784 4.73041C44.0429 4.47364 43.5528 4.52453 43.2825 4.84608C43.0145 5.16762 43.0676 5.63953 43.4032 5.8963Z" fill="#2966D3"/>
<path d="M40.5378 1.42497V19.4869L37.0834 16.7295L37.682 10.2038C37.9597 10.109 38.1697 9.86839 38.1986 9.56766C38.2373 9.1559 37.9186 8.79503 37.4913 8.75802C37.0617 8.72101 36.6851 9.02636 36.6465 9.43581C36.6199 9.73653 36.7816 10.0095 37.0375 10.1483L36.4075 16.9979L40.5378 20.2943V28.6752L41.1847 28.6775V22.3808L45.315 19.0821L44.685 12.2325C44.9409 12.0914 45.105 11.8185 45.076 11.5201C45.0374 11.1083 44.6608 10.8053 44.2311 10.8423C43.8015 10.8793 43.4852 11.2402 43.5239 11.6519C43.5504 11.9526 43.7604 12.1932 44.0404 12.2881L44.6391 18.8138L41.1823 21.5735V1.42497C41.4503 1.30699 41.6385 1.04791 41.6385 0.747184C41.6385 0.335423 41.2885 0 40.8588 0C40.4291 0 40.0791 0.335423 40.0791 0.747184C40.0815 1.04791 40.2698 1.30699 40.5378 1.42497Z" fill="#2966D3"/>
<path d="M38.3193 72.4166C38.0731 72.2292 37.7472 72.2084 37.4816 72.3333L34.5994 70.1241L33.0641 53.4177C33.32 53.2766 33.4841 53.0037 33.4551 52.7053C33.4165 52.2935 33.0399 51.9905 32.6102 52.0275C32.1806 52.0645 31.8643 52.4254 31.903 52.8371C31.9295 53.1378 32.1419 53.3784 32.4195 53.4733L32.7454 57.0195L22.4378 65.2987L18.7685 64.9077C18.6768 64.6394 18.4282 64.4335 18.1168 64.3988C17.6895 64.3526 17.3032 64.6486 17.255 65.0581C17.2067 65.4675 17.5157 65.8377 17.943 65.8839C18.2544 65.9163 18.544 65.7683 18.6961 65.5254L22.6405 65.9441L32.813 57.7736L33.9766 70.4457L37.0761 72.8214C37.0037 73.0967 37.0978 73.3974 37.344 73.5848C37.6796 73.8416 38.1696 73.7907 38.44 73.4691C38.7079 73.1453 38.6548 72.6734 38.3193 72.4166Z" fill="#2966D3"/>
<path d="M41.1848 76.8884V58.8264L44.6416 61.5861L44.0429 68.1119C43.7653 68.2067 43.5553 68.4473 43.5263 68.748C43.4877 69.1598 43.8063 69.5206 44.2336 69.5576C44.6633 69.5947 45.0399 69.2893 45.0785 68.8799C45.105 68.5791 44.9433 68.3062 44.6874 68.1674L45.3175 61.3178L41.1872 58.0191V53.0895L41.1751 49.5225H40.5402V55.9325L36.4099 59.2312L37.04 66.0808C36.7841 66.2219 36.6199 66.4949 36.6489 66.7933C36.6875 67.2051 37.0641 67.5081 37.4938 67.4711C37.9235 67.4341 38.2397 67.0732 38.2011 66.6614C38.1745 66.3607 37.9645 66.1201 37.6845 66.0253L37.0858 59.4996L40.5426 56.7398V76.8884C40.2747 77.0064 40.0864 77.2654 40.0864 77.5662C40.0864 77.9779 40.4364 78.3134 40.8661 78.3134C41.2958 78.3134 41.6458 77.9779 41.6458 77.5662C41.641 77.2654 41.4527 77.0064 41.1848 76.8884Z" fill="#2966D3"/>
<path d="M76.6654 41.477C76.3299 41.2202 75.8399 41.2711 75.5695 41.5927C75.374 41.8286 75.3498 42.1409 75.4826 42.3954L73.1773 45.1574L55.7435 46.6286C55.5963 46.3834 55.3114 46.2261 55 46.2539C54.5703 46.2909 54.2541 46.6518 54.2927 47.0635C54.3314 47.4753 54.7079 47.7783 55.1376 47.7413C55.4515 47.7159 55.7025 47.5146 55.8015 47.2463L59.5021 46.934L68.1417 56.8116L67.7337 60.3278C67.4537 60.4157 67.2389 60.654 67.2027 60.9524C67.1544 61.3618 67.4634 61.7319 67.8907 61.7782C68.3179 61.8245 68.7042 61.5284 68.7524 61.1189C68.7862 60.8205 68.6317 60.5429 68.3783 60.3972L68.8152 56.6173L60.2891 46.8692L73.5128 45.7542L75.9919 42.7863C76.2792 42.8557 76.593 42.7655 76.7886 42.5295C77.0565 42.2057 77.001 41.7338 76.6654 41.477Z" fill="#2966D3"/>
<path d="M60.2866 31.4465L68.7258 21.8002L68.8151 21.6984L68.3782 17.9185C68.6317 17.7728 68.7886 17.4975 68.7524 17.1968C68.7041 16.7873 68.3203 16.4912 67.8906 16.5375C67.4633 16.5837 67.1543 16.9516 67.2026 17.3633C67.2364 17.6617 67.4537 17.9 67.7337 17.9879L68.1416 21.5041L56.8998 34.3566C56.6149 34.2825 56.2987 34.3635 56.0959 34.5948C55.8183 34.9117 55.8618 35.3813 56.1925 35.6474C56.5232 35.9134 57.0132 35.8717 57.2909 35.5548C57.4936 35.3235 57.5226 35.0112 57.3971 34.7544L59.7821 32.0271L73.1796 33.156L75.4849 35.918C75.3522 36.1701 75.3739 36.4848 75.5718 36.7207C75.8398 37.0422 76.3322 37.0955 76.6678 36.8364C77.0033 36.5773 77.0589 36.1077 76.7885 35.7861C76.593 35.5502 76.2767 35.4623 75.9919 35.5294L73.5127 32.5591L60.2866 31.4465Z" fill="#2966D3"/>
<path d="M80.943 38.4095C80.6292 38.4095 80.3588 38.5899 80.2357 38.8467H61.3874L64.2673 35.5364L71.0771 36.1101C71.176 36.3761 71.4271 36.5774 71.7409 36.6051C72.1706 36.6421 72.5472 36.3368 72.5858 35.9273C72.6244 35.5179 72.3058 35.1547 71.8785 35.1177C71.5647 35.0922 71.2798 35.2472 71.135 35.4924L63.9872 34.8887L60.5449 38.8467H57.0471C56.924 38.5899 56.6536 38.4095 56.3398 38.4095C55.9101 38.4095 55.5601 38.7449 55.5601 39.1566C55.5601 39.5684 55.9101 39.9038 56.3398 39.9038C56.6536 39.9038 56.924 39.7234 57.0471 39.4666H58.3675L61.8074 43.4246L68.9552 42.8209C69.1024 43.0661 69.3873 43.2234 69.6987 43.1956C70.1284 43.1586 70.4446 42.7977 70.406 42.386C70.3674 41.9742 69.9908 41.6712 69.5611 41.7082C69.2473 41.7336 68.9962 41.9372 68.8973 42.2032L62.0874 42.7769L59.21 39.4666H80.2357C80.3588 39.7234 80.6292 39.9038 80.943 39.9038C81.3727 39.9038 81.7227 39.5684 81.7227 39.1566C81.7227 38.7449 81.3727 38.4095 80.943 38.4095Z" fill="#2966D3"/>
<path d="M5.05721 36.8362C5.39275 37.093 5.88279 37.0421 6.15315 36.7206C6.34868 36.4846 6.37282 36.1723 6.24006 35.9179L8.5454 33.1558L25.9791 31.6846C26.1264 31.9298 26.4112 32.0871 26.7226 32.0593C27.1523 32.0223 27.4685 31.6615 27.4299 31.2497C27.3913 30.8379 27.0147 30.5349 26.585 30.5719C26.2712 30.5974 26.0201 30.7986 25.9212 31.067L22.2205 31.3792L13.5809 21.5016L13.9889 17.9855C14.2689 17.8975 14.4838 17.6593 14.52 17.3609C14.5683 16.9514 14.2593 16.5813 13.832 16.535C13.4047 16.4888 13.0185 16.7849 12.9702 17.1943C12.9364 17.4927 13.0909 17.7703 13.3444 17.9161L12.9074 21.6982L21.4336 31.4463L8.20986 32.5613L5.73071 35.5316C5.44345 35.4622 5.12963 35.5524 4.9341 35.7883C4.66615 36.1076 4.72167 36.5795 5.05721 36.8362Z" fill="#2966D3"/>
<path d="M21.436 46.8669L12.9968 56.5132L12.9075 56.615L13.3444 60.3949C13.0909 60.5406 12.934 60.8159 12.9702 61.1166C13.0185 61.5261 13.4023 61.8221 13.832 61.7759C14.2593 61.7296 14.5683 61.3618 14.52 60.95C14.4862 60.6516 14.2689 60.4134 13.9889 60.3255L13.581 56.8093L24.8228 43.9568C25.1077 44.0308 25.4239 43.9499 25.6267 43.7185C25.9043 43.4016 25.8608 42.932 25.5301 42.666C25.1994 42.4 24.7094 42.4416 24.4318 42.7585C24.229 42.9899 24.2 43.3022 24.3255 43.5589L21.9405 46.2863L8.54299 45.1574L6.23765 42.3954C6.37042 42.1432 6.34869 41.8286 6.15075 41.5927C5.88279 41.2711 5.39034 41.2179 5.0548 41.477C4.71926 41.7338 4.66374 42.2057 4.9341 42.5272C5.12964 42.7632 5.44587 42.8511 5.73071 42.784L8.20986 45.7542L21.436 46.8669Z" fill="#2966D3"/>
<path d="M20.3329 39.4665L17.453 42.7768L10.6432 42.2031C10.5442 41.9371 10.2932 41.7358 9.97936 41.7081C9.54967 41.671 9.17309 41.9764 9.13447 42.3858C9.09585 42.7976 9.41449 43.1585 9.84176 43.1955C10.1556 43.2209 10.4404 43.0659 10.5853 42.8207L17.733 43.4222L21.1754 39.4642H24.6732C24.7963 39.721 25.0667 39.9014 25.3805 39.9014C25.8102 39.9014 26.1602 39.566 26.1602 39.1542C26.1602 38.7424 25.8102 38.407 25.3805 38.407C25.0667 38.407 24.7963 38.5875 24.6732 38.8442H23.3528L19.9129 34.8862L12.7651 35.49C12.6178 35.2448 12.333 35.0875 12.0216 35.1152C11.5919 35.1523 11.2757 35.5131 11.3143 35.9249C11.3529 36.3367 11.7295 36.6397 12.1592 36.6027C12.473 36.5772 12.724 36.376 12.823 36.1076L19.6328 35.5339L22.5103 38.8442H1.48701C1.36389 38.5875 1.09353 38.407 0.779713 38.407C0.350026 38.407 0 38.7424 0 39.1542C0 39.566 0.350026 39.9014 0.779713 39.9014C1.09353 39.9014 1.36389 39.721 1.48701 39.4642H20.3329V39.4665Z" fill="#2966D3"/>
<path d="M55.1471 25.0271L54.7391 20.736L59.9775 16.5282C60.243 16.6485 60.5713 16.6207 60.8127 16.4264C61.1434 16.1604 61.1869 15.6908 60.9093 15.3739C60.6317 15.057 60.1416 15.0153 59.8109 15.2814C59.5695 15.4757 59.4826 15.7787 59.5623 16.0517L54.0632 20.4677L54.5509 25.5985L51.3548 28.6613C51.0771 28.5641 50.7561 28.6196 50.5316 28.8325C50.2274 29.1239 50.2274 29.5981 50.5316 29.8896C50.8357 30.1811 51.3306 30.1811 51.6348 29.8896C51.8569 29.6768 51.9148 29.3668 51.8134 29.1031L53.4694 27.5162L58.8236 27.9835L63.4319 22.7139C63.7167 22.7879 64.0329 22.7069 64.2357 22.4756C64.5133 22.1587 64.4699 21.6891 64.1392 21.4231C63.8084 21.157 63.3184 21.1987 63.0408 21.5156C62.838 21.7469 62.8091 22.0592 62.9346 22.316L58.5436 27.3358L54.0656 26.9448L68.9333 12.6974C69.2109 12.7946 69.532 12.7391 69.7565 12.5263C70.0606 12.2348 70.0606 11.7606 69.7565 11.4691C69.4523 11.1776 68.9574 11.1776 68.6533 11.4691C68.4312 11.6819 68.3733 11.9919 68.4747 12.2556L55.1471 25.0271Z" fill="#2966D3"/>
<path d="M26.5755 53.2862L26.9835 57.5773L21.7452 61.7851C21.4796 61.6648 21.1513 61.6926 20.9099 61.8869C20.5792 62.1529 20.5358 62.6225 20.8134 62.9394C21.091 63.2564 21.581 63.298 21.9117 63.032C22.1531 62.8377 22.24 62.5346 22.1604 62.2616L27.6594 57.8456L27.1718 52.7148L29.4844 50.4987C29.762 50.5959 30.083 50.5403 30.3051 50.3275C30.6093 50.036 30.6093 49.5618 30.3051 49.2704C30.0009 48.9789 29.5061 48.9789 29.2019 49.2704C28.9798 49.4832 28.9219 49.7932 29.0233 50.0569L28.2508 50.7971L22.8966 50.3298L18.2884 55.5995C18.0035 55.5254 17.6873 55.6064 17.4845 55.8377C17.2069 56.1546 17.2503 56.6242 17.5811 56.8902C17.9118 57.1563 18.4018 57.1146 18.6794 56.7977C18.8822 56.5664 18.9112 56.2541 18.7856 55.9973L23.1766 50.9775L27.6546 51.3685L12.7869 65.6159C12.5093 65.5187 12.1882 65.5742 11.9662 65.7871C11.662 66.0785 11.662 66.5528 11.9662 66.8442C12.2703 67.1357 12.7652 67.1357 13.0693 66.8442C13.2914 66.6314 13.3494 66.3214 13.248 66.0577L26.5755 53.2862Z" fill="#2966D3"/>
<path d="M63.6058 64.3991C63.2944 64.4315 63.0457 64.6397 62.954 64.908L59.2847 65.299L45.8727 54.5261C45.95 54.2531 45.8655 53.9501 45.6241 53.7558C45.2934 53.4898 44.8033 53.5314 44.5257 53.8483C44.2481 54.1652 44.2916 54.6348 44.6223 54.9009C44.8637 55.0952 45.1896 55.1229 45.4575 55.0026L48.3036 57.2881L47.1256 70.1268L44.2433 72.3359C43.9802 72.2087 43.6519 72.2295 43.4056 72.4192C43.0701 72.676 43.0146 73.1479 43.2849 73.4694C43.5553 73.791 44.0453 73.8442 44.3809 73.5851C44.6271 73.3977 44.7188 73.0947 44.6488 72.8217L47.746 70.446L48.9095 57.7739L58.9758 65.8611L59.082 65.9467L63.0264 65.528C63.1785 65.7709 63.4657 65.9213 63.7796 65.8866C64.2068 65.8403 64.5158 65.4725 64.4675 65.0607C64.4193 64.649 64.033 64.3529 63.6058 64.3991Z" fill="#2966D3"/>
<path d="M68.9311 65.6178L55.6035 52.8463L60.0839 52.4553L64.4749 57.4751C64.3493 57.7296 64.3783 58.0442 64.5811 58.2755C64.8587 58.5924 65.3487 58.6341 65.6794 58.368C66.0101 58.102 66.0536 57.6324 65.776 57.3155C65.5732 57.0842 65.257 57.0009 64.9721 57.0772L60.3639 51.8076L55.0097 52.2749L51.2101 48.6338L50.7225 48.1666L50.1769 47.6438L48.7189 46.2465L48.1492 45.7006L47.2053 45.6729L47.8064 46.2489L49.7231 48.0856L50.2687 48.6084L50.7563 49.0757L53.0157 51.2409L52.5281 56.3717L58.0272 60.7877C57.9499 61.0607 58.0344 61.3637 58.2758 61.558C58.6065 61.8241 59.0965 61.7824 59.3741 61.4655C59.6518 61.1486 59.6083 60.679 59.2776 60.413C59.0362 60.2187 58.7103 60.1909 58.4424 60.3112L53.204 56.1034L53.612 51.8099L68.4772 66.055C68.3734 66.321 68.4314 66.631 68.6559 66.8438C68.96 67.1353 69.4549 67.1353 69.7591 66.8438C70.0632 66.5524 70.0632 66.0782 69.7591 65.7867C69.5321 65.5739 69.2087 65.5183 68.9311 65.6178Z" fill="#2966D3"/>
<path d="M18.1168 13.9144C18.4282 13.882 18.6768 13.6739 18.7685 13.4055L22.4378 13.0146L35.8498 23.7874C35.7725 24.0604 35.857 24.3634 36.0984 24.5578C36.4291 24.8238 36.9192 24.7821 37.1968 24.4652C37.4744 24.1483 37.431 23.6787 37.1002 23.4127C36.8588 23.2184 36.5329 23.1906 36.265 23.3109L33.4189 21.0254L34.5969 8.18679L37.4792 5.97762C37.7423 6.10485 38.0707 6.08403 38.3169 5.89434C38.6524 5.63757 38.7079 5.16566 38.4376 4.84412C38.1696 4.52258 37.6772 4.46937 37.3416 4.72846C37.0954 4.91583 37.0037 5.21887 37.0737 5.49183L33.9766 7.86756L32.813 20.5396L22.7468 12.4524L22.6405 12.3669L18.6961 12.7856C18.544 12.5427 18.2568 12.3923 17.943 12.427C17.5157 12.4733 17.2067 12.8411 17.255 13.2528C17.3032 13.6646 17.6895 13.9607 18.1168 13.9144Z" fill="#2966D3"/>
<path d="M12.7891 12.6951L26.1166 25.4667L21.6387 25.8576L17.2477 20.8378C17.3732 20.581 17.3443 20.2687 17.1415 20.0374C16.8639 19.7205 16.3739 19.6789 16.0431 19.9449C15.7124 20.2109 15.669 20.6805 15.9466 20.9974C16.1494 21.2288 16.4656 21.312 16.7504 21.2357L21.3587 26.5053L26.7129 26.038L35.2535 34.2224L35.5939 33.6695L35.466 33.5469L35.1811 33.2739L32.0043 30.2297L31.4588 29.7069L30.9711 29.2396L28.7117 27.0744L29.1993 21.9436L23.7003 17.5275C23.7775 17.2546 23.693 16.9515 23.4516 16.7572C23.1209 16.4912 22.6309 16.5328 22.3533 16.8497C22.0757 17.1667 22.1191 17.6363 22.4498 17.9023C22.6912 18.0966 23.0171 18.1244 23.2851 18.0041L28.5234 22.2119L28.1154 26.5053L13.2502 12.2579C13.354 11.9919 13.296 11.6819 13.0715 11.4691C12.7674 11.1776 12.2725 11.1776 11.9684 11.4691C11.6642 11.7606 11.6642 12.2348 11.9684 12.5263C12.1904 12.7391 12.5139 12.7946 12.7891 12.6951Z" fill="#2966D3"/>
<path d="M52.9143 38.391C52.6173 38.391 52.359 38.5483 52.2214 38.7796H46.2155V34.5603L48.656 32.2215C48.924 32.2909 49.2233 32.2285 49.4333 32.0272C49.7447 31.7288 49.7447 31.243 49.4333 30.9423C49.1195 30.6439 48.615 30.6439 48.3012 30.9423C48.0911 31.1436 48.0235 31.4304 48.0984 31.6872L46.2155 33.4915V28.2913L41.2548 28.2589V26.8085C41.4962 26.6766 41.6603 26.4314 41.6603 26.1446C41.6603 25.7213 41.3031 25.3789 40.8613 25.3789C40.4195 25.3789 40.0623 25.7213 40.0623 26.1446C40.0623 26.4291 40.2264 26.6743 40.4678 26.8085V28.2566L38.6597 28.245L35.2247 33.2209L32.031 30.1604C32.1034 29.9037 32.0382 29.6191 31.8282 29.4156C31.5168 29.1171 31.0099 29.1171 30.6961 29.4156C30.3822 29.714 30.3847 30.1998 30.6961 30.5005C30.9061 30.7017 31.2054 30.7642 31.4734 30.6948L34.7781 33.8616L33.5035 35.7099C33.5011 35.7099 33.5011 35.7099 33.5011 35.7099C33.2235 35.6914 32.9435 35.8117 32.7769 36.0523C32.5331 36.4039 32.6345 36.8805 33.0038 37.1141C33.3707 37.3477 33.868 37.2506 34.1118 36.8967C34.276 36.6584 34.2832 36.3623 34.1577 36.1263L35.3478 34.4053L35.3864 34.3474L35.7509 33.82L35.792 33.7622L39.0798 28.9992L40.4678 29.0084L40.5378 29.0107L41.1848 29.013L41.2548 29.0154L45.4285 29.0431V39.5361H49.7375V45.4904H48.0284H46.9155H45.4285V49.3166H41.2548H40.4678H39.2874V45.4904H31.9875V38.7796H29.5036C29.366 38.5483 29.1077 38.391 28.8107 38.391C28.369 38.391 28.0117 38.7334 28.0117 39.1567C28.0117 39.58 28.3714 39.9224 28.8107 39.9224C29.1077 39.9224 29.3635 39.7674 29.5036 39.5338H31.203V46.2446H32.9121L32.171 46.9547C31.903 46.8853 31.6061 46.9455 31.3937 47.149C31.0823 47.4475 31.0823 47.9332 31.3937 48.234C31.7075 48.5324 32.212 48.5324 32.5258 48.234C32.7383 48.0304 32.8035 47.7459 32.7286 47.4891L32.731 47.4868L34.0273 46.2446H38.5053V50.0707H40.4726V51.5072C40.2312 51.6391 40.0671 51.8843 40.0671 52.1711C40.0671 52.5945 40.4244 52.9368 40.8661 52.9368C41.3079 52.9368 41.6651 52.5945 41.6651 52.1711C41.6651 51.8866 41.501 51.6391 41.2596 51.5072V50.073H46.2203V46.2469H47.7073L49.6988 48.1553C49.6264 48.4121 49.6916 48.6989 49.9016 48.9002C50.213 49.1986 50.72 49.1986 51.0338 48.9002C51.3452 48.6018 51.3452 48.116 51.0338 47.8153C50.8238 47.614 50.5244 47.5515 50.2565 47.6209L48.8202 46.2446H50.5293V39.5338H52.2287C52.3663 39.7651 52.6222 39.9224 52.9215 39.9224C53.3633 39.9224 53.7205 39.58 53.7205 39.1567C53.7157 38.7334 53.356 38.391 52.9143 38.391Z" fill="#2966D3"/>
<path d="M33.5784 39.5476V44.1093H40.3834V47.6764H40.4654H41.2524H42.2325C42.3701 47.9077 42.6308 48.065 42.9301 48.065C43.3719 48.065 43.7291 47.7203 43.7291 47.2993C43.7291 46.876 43.3694 46.5336 42.9301 46.5336C42.6332 46.5336 42.3725 46.6909 42.2325 46.9222H41.2524H41.1703V43.3552H40.4654H34.3653V39.7766L34.8867 39.0201L35.0533 38.7796L35.9827 37.4332C36.2603 37.4517 36.5403 37.3315 36.7069 37.0909C36.9507 36.7393 36.8493 36.2627 36.48 36.0291C36.113 35.7954 35.6158 35.8926 35.372 36.2465C35.2078 36.4848 35.2006 36.7809 35.3261 37.0169L33.5856 39.536L33.5784 39.5476Z" fill="#2966D3"/>
<path d="M41.2548 30.6509L40.4679 30.6462L39.7316 30.6416L39.046 31.634C38.7684 31.6178 38.4884 31.7381 38.3243 31.9764C38.078 32.3303 38.1818 32.8045 38.5512 33.0381C38.9181 33.2718 39.4154 33.1746 39.6592 32.8207C39.8233 32.5824 39.8306 32.2886 39.7026 32.0504L40.1541 31.398L40.4703 31.4004L41.2572 31.405L43.3405 31.4189V41.2155H47.3598V43.3553H45.2331C45.0955 43.124 44.8348 42.9667 44.5354 42.9667C44.4871 42.9667 44.4437 42.969 44.3978 42.9782C44.3689 42.9829 44.3423 42.9875 44.3157 42.9944C43.9802 43.087 43.7364 43.3831 43.7364 43.73C43.7364 44.1557 44.0961 44.4957 44.5354 44.4957C44.8323 44.4957 45.093 44.3407 45.2331 44.1071H48.1491V40.4568H44.1275V30.6647L41.2548 30.6509Z" fill="#2966D3"/>
<path d="M42.3531 35.8096C42.3531 35.3863 41.9959 35.0439 41.5541 35.0439C41.4479 35.0439 41.3465 35.0648 41.2524 35.1018C41.2282 35.111 41.2041 35.1203 41.1824 35.1318C40.9265 35.2614 40.7527 35.5158 40.7527 35.8119C40.7527 35.849 40.7551 35.8837 40.7623 35.9184C40.7961 36.1589 40.9482 36.3625 41.1606 36.4782V40.0707C40.9168 40.2025 40.7551 40.4524 40.7551 40.7392C40.7551 41.0607 40.9627 41.336 41.2548 41.4494C41.3465 41.4864 41.4503 41.5072 41.5565 41.5072C41.88 41.5072 42.16 41.3198 42.2831 41.0538C42.3314 40.959 42.3556 40.8526 42.3556 40.7392C42.3556 40.4547 42.1938 40.2048 41.95 40.0707V36.4782C42.1914 36.3463 42.3531 36.0965 42.3531 35.8096Z" fill="#2966D3"/>
<path d="M94.7097 47.9077C94.7097 48.3287 94.6252 48.6896 94.4538 48.9927C94.2824 49.2957 94.0459 49.527 93.7441 49.6889C93.4424 49.8509 93.0899 49.9318 92.6916 49.9318H91.1008V45.96H92.513C93.2155 45.96 93.7562 46.1288 94.1376 46.4666C94.519 46.8043 94.7097 47.2832 94.7097 47.9077ZM94.041 47.9077C94.041 47.4381 93.9083 47.0796 93.6451 46.8321C93.382 46.5845 92.9982 46.4619 92.5009 46.4619H91.7623V49.4299H92.624C92.9113 49.4299 93.1624 49.3674 93.3748 49.2448C93.5872 49.1199 93.7514 48.9441 93.8672 48.7174C93.9831 48.4884 94.041 48.22 94.041 47.9077Z" fill="white"/>
<path d="M99.3951 47.9261C99.3951 48.3471 99.3107 48.7126 99.1417 49.0203C98.9727 49.3279 98.7313 49.5662 98.4223 49.7351C98.1133 49.9039 97.7464 49.9872 97.3215 49.9872C96.8967 49.9872 96.5298 49.9039 96.2208 49.7397C95.9118 49.5755 95.6752 49.3372 95.5086 49.0295C95.3421 48.7219 95.26 48.354 95.26 47.9284C95.26 47.5028 95.3421 47.1396 95.5062 46.8389C95.6704 46.5381 95.907 46.3068 96.2159 46.1449C96.5249 45.9829 96.8967 45.902 97.3288 45.902C97.7585 45.902 98.1278 45.9829 98.4368 46.1426C98.7458 46.3022 98.9824 46.5335 99.1489 46.8365C99.3131 47.1373 99.3951 47.5005 99.3951 47.9261ZM98.7192 47.9261C98.7192 47.4542 98.5985 47.0841 98.3547 46.8134C98.1109 46.5428 97.7705 46.4086 97.3288 46.4086C96.8846 46.4086 96.5394 46.5404 96.2956 46.8065C96.0518 47.0725 95.9311 47.4449 95.9311 47.9238C95.9311 48.2407 95.9866 48.516 96.0977 48.7473C96.2087 48.9786 96.368 49.1591 96.578 49.284C96.7856 49.4089 97.0343 49.4737 97.324 49.4737C97.773 49.4737 98.1181 49.3395 98.3595 49.0688C98.5985 48.8028 98.7192 48.4211 98.7192 47.9261ZM96.9715 45.0669V45.6198H96.4573V45.0669H96.9715ZM98.1857 45.0669V45.6198H97.674V45.0669H98.1857Z" fill="white"/>
<path d="M100.798 48.3311V49.9318H100.136V45.96H102.125C102.601 45.96 102.97 46.0594 103.229 46.2607C103.487 46.4619 103.617 46.7465 103.617 47.112C103.617 47.4011 103.53 47.6463 103.356 47.8476C103.183 48.0488 102.944 48.1784 102.64 48.2339L103.798 49.9318H103.04L102.002 48.3311H100.798ZM102.949 47.1258C102.949 46.9084 102.874 46.7418 102.722 46.6308C102.57 46.5175 102.347 46.4619 102.058 46.4619H100.8V47.8314H102.082C102.36 47.8314 102.574 47.7689 102.724 47.6463C102.874 47.5214 102.949 47.3479 102.949 47.1258Z" fill="white"/>
<path d="M108.095 47.9077C108.095 48.3287 108.011 48.6896 107.839 48.9927C107.668 49.2957 107.431 49.527 107.13 49.6889C106.828 49.8509 106.475 49.9318 106.077 49.9318H104.486V45.96H105.899C106.601 45.96 107.142 46.1288 107.523 46.4666C107.905 46.802 108.095 47.2832 108.095 47.9077ZM107.429 47.9077C107.429 47.4381 107.296 47.0796 107.033 46.8321C106.768 46.5845 106.386 46.4619 105.889 46.4619H105.15V49.4299H106.012C106.299 49.4299 106.55 49.3674 106.763 49.2448C106.975 49.1199 107.139 48.9441 107.255 48.7174C107.369 48.4884 107.429 48.22 107.429 47.9077Z" fill="white"/>
<path d="M110.514 49.9872C110.162 49.9872 109.857 49.9271 109.602 49.8068C109.346 49.6865 109.148 49.513 109.01 49.2886C108.872 49.0642 108.802 48.7913 108.802 48.4743V45.9598H109.466V48.4211C109.466 48.7681 109.556 49.0318 109.737 49.2123C109.918 49.3927 110.178 49.4806 110.519 49.4806C110.871 49.4806 111.144 49.3881 111.337 49.2007C111.53 49.0133 111.627 48.7427 111.627 48.3864V45.9598H112.288V48.4258C112.288 48.7519 112.216 49.0295 112.073 49.2632C111.931 49.4968 111.726 49.6749 111.46 49.7998C111.197 49.9248 110.881 49.9872 110.514 49.9872ZM110.193 45.0669V45.6198H109.679V45.0669H110.193ZM111.407 45.0669V45.6198H110.895V45.0669H111.407Z" fill="white"/>
<path d="M113.775 47.3919V49.9318H113.186V45.96H113.952L116.056 49.2587C116.03 48.9163 116.015 48.6526 116.015 48.4675V45.9623H116.609V49.9342H115.818L113.739 46.6586C113.746 46.7927 113.754 46.92 113.763 47.0426C113.77 47.1605 113.775 47.2785 113.775 47.3919Z" fill="white"/>
<path d="M119.419 49.4739C119.982 49.4739 120.394 49.2056 120.658 48.6712L121.213 48.9118C121.046 49.268 120.807 49.534 120.496 49.7168C120.184 49.8972 119.82 49.9898 119.4 49.9898C118.973 49.9898 118.606 49.9065 118.302 49.7422C117.997 49.578 117.763 49.3397 117.599 49.0298C117.437 48.7198 117.355 48.3543 117.355 47.9286C117.355 47.503 117.435 47.1375 117.594 46.8345C117.754 46.5314 117.985 46.3001 118.289 46.1405C118.591 45.9809 118.958 45.8999 119.385 45.8999C119.842 45.8999 120.221 45.9855 120.52 46.159C120.819 46.3325 121.037 46.5869 121.172 46.9224L120.561 47.1028C120.476 46.883 120.332 46.7119 120.126 46.5916C119.921 46.4713 119.68 46.4088 119.397 46.4088C118.961 46.4088 118.623 46.543 118.386 46.809C118.149 47.075 118.031 47.4475 118.031 47.924C118.031 48.2409 118.087 48.5162 118.198 48.7475C118.309 48.9789 118.468 49.157 118.676 49.2842C118.883 49.4114 119.132 49.4739 119.419 49.4739Z" fill="white"/>
<path d="M123.564 49.9872C123.211 49.9872 122.907 49.9271 122.651 49.8068C122.395 49.6865 122.197 49.513 122.06 49.2886C121.922 49.0642 121.852 48.7913 121.852 48.4743V45.9598H122.516V48.4211C122.516 48.7681 122.605 49.0318 122.786 49.2123C122.968 49.3927 123.228 49.4806 123.569 49.4806C123.921 49.4806 124.194 49.3881 124.387 49.2007C124.58 49.0133 124.677 48.7427 124.677 48.3864V45.9598H125.338V48.4258C125.338 48.7519 125.266 49.0295 125.123 49.2632C124.981 49.4968 124.776 49.6749 124.51 49.7998C124.247 49.9248 123.931 49.9872 123.564 49.9872ZM123.243 45.0669V45.6198H122.729V45.0669H123.243ZM124.459 45.0669V45.6198H123.948V45.0669H124.459Z" fill="white"/>
<path d="M131.202 48.8169C131.202 49.1917 131.052 49.4785 130.753 49.6821C130.453 49.8857 130.024 49.9875 129.469 49.9875C128.447 49.9875 127.854 49.6428 127.689 48.9511L128.332 48.8378C128.392 49.0668 128.517 49.2356 128.711 49.3421C128.901 49.4485 129.162 49.5017 129.495 49.5017C129.838 49.5017 130.101 49.4462 130.282 49.3374C130.463 49.2287 130.555 49.0668 130.555 48.8563C130.555 48.7313 130.523 48.6319 130.458 48.5509C130.395 48.4723 130.304 48.4075 130.185 48.3566C130.089 48.3126 129.971 48.2756 129.826 48.2409C129.683 48.2062 129.517 48.1715 129.331 48.1299C129.116 48.0836 128.942 48.0397 128.805 47.998C128.667 47.9587 128.556 47.9148 128.469 47.8708C128.382 47.8269 128.307 47.7806 128.24 47.732C128.126 47.6464 128.039 47.54 127.977 47.4174C127.914 47.2948 127.885 47.1491 127.885 46.9802C127.885 46.6332 128.023 46.3649 128.298 46.1798C128.573 45.9947 128.966 45.8999 129.483 45.8999C129.968 45.8999 130.338 45.9716 130.591 46.115C130.842 46.2585 131.013 46.5014 131.105 46.8414L130.458 46.9409C130.403 46.7442 130.297 46.5985 130.14 46.506C129.983 46.4134 129.761 46.3672 129.476 46.3672C129.167 46.3672 128.933 46.4158 128.773 46.5106C128.612 46.6055 128.532 46.7512 128.532 46.9409C128.532 47.0565 128.563 47.1537 128.628 47.2277C128.691 47.3041 128.785 47.3665 128.906 47.4197C129.022 47.4706 129.266 47.5354 129.638 47.614C129.809 47.6511 129.968 47.6881 130.12 47.7274C130.272 47.7644 130.408 47.8084 130.528 47.8592C130.61 47.8916 130.688 47.9286 130.76 47.9726C130.832 48.0165 130.893 48.0651 130.946 48.1206C131.028 48.2062 131.093 48.3034 131.139 48.4191C131.18 48.5347 131.202 48.6666 131.202 48.8169Z" fill="white"/>
<path d="M134.994 47.6117C134.948 47.2347 134.813 46.9386 134.589 46.7257C134.364 46.5129 134.07 46.4065 133.71 46.4065C133.428 46.4065 133.193 46.4643 133.005 46.58C132.817 46.6957 132.67 46.8622 132.566 47.0797L131.95 46.9016C132.095 46.5777 132.315 46.3302 132.612 46.159C132.906 45.9878 133.273 45.8999 133.712 45.8999C134.14 45.8999 134.504 45.9901 134.806 46.1706C135.088 46.3348 135.303 46.5661 135.453 46.8692C135.603 47.1699 135.677 47.5238 135.677 47.9286C135.677 48.3427 135.598 48.7059 135.438 49.0159C135.279 49.3282 135.052 49.5688 134.753 49.7353C134.456 49.9042 134.106 49.9875 133.705 49.9875C133.3 49.9875 132.947 49.9042 132.65 49.7376C132.353 49.5734 132.124 49.3328 131.967 49.0228C131.81 48.7105 131.733 48.3473 131.733 47.9286C131.733 47.8824 131.735 47.8315 131.738 47.7783C131.74 47.7251 131.745 47.6696 131.75 47.6117H134.994ZM133.705 49.4994C134.106 49.4994 134.42 49.3814 134.644 49.1431C134.869 48.9048 134.989 48.5671 135.011 48.1299H132.385C132.414 48.5625 132.544 48.8979 132.776 49.1385C133.007 49.3791 133.319 49.4994 133.705 49.4994Z" fill="white"/>
<path d="M136.998 47.3919V49.9318H136.409V45.96H137.174L139.279 49.2587C139.252 48.9163 139.238 48.6526 139.238 48.4675V45.9623H139.832V49.9342H139.04L136.961 46.6586C136.969 46.7927 136.976 46.92 136.986 47.0426C136.993 47.1605 136.998 47.2785 136.998 47.3919Z" fill="white"/>
<path d="M141.471 48.8167L141.029 49.9294H140.353L141.982 45.9575H142.75L144.363 49.9294H143.694L143.255 48.8167H141.471ZM142.361 46.4341C142.332 46.5289 142.296 46.6376 142.255 46.7602C142.214 46.8805 142.176 46.9823 142.144 47.0609L141.647 48.3332H143.078L142.571 47.0424C142.545 46.973 142.511 46.8851 142.475 46.7787C142.439 46.67 142.403 46.5543 142.361 46.4341Z" fill="white"/>
<path d="M146.279 48.2893V49.9294H145.618V48.2893L144.066 45.9575H144.78L145.951 47.7781L147.124 45.9575H147.839L146.279 48.2893Z" fill="white"/>
<path d="M151.728 49.4228V49.9294H148.425V45.9575H151.607V46.4641H149.087V47.6462H151.428V48.1505H149.087V49.4228H151.728Z" fill="white"/>
<path d="M154.818 45.9599V49.9317H154.156V45.9599H154.818ZM154.803 44.9443V45.4625H154.176V44.9443H154.803Z" fill="white"/>
<path d="M156.377 47.3919V49.9318H155.788V45.96H156.553L158.658 49.2587C158.632 48.9163 158.617 48.6526 158.617 48.4675V45.9623H159.211V49.9342H158.419L156.341 46.6586C156.348 46.7927 156.355 46.92 156.365 47.0426C156.375 47.1605 156.377 47.2785 156.377 47.3919Z" fill="white"/>
<path d="M164.085 47.9262C164.085 48.2917 164.02 48.6179 163.892 48.9024C163.761 49.1869 163.575 49.4159 163.334 49.5941C163.093 49.7722 162.801 49.8855 162.46 49.9387C162.537 50.1585 162.639 50.3181 162.767 50.4153C162.895 50.5124 163.061 50.561 163.266 50.561C163.38 50.561 163.493 50.5494 163.607 50.5263L163.604 50.9658C163.404 51.0098 163.209 51.0329 163.02 51.0329C162.716 51.0329 162.465 50.9519 162.27 50.7877C162.072 50.6235 161.912 50.3505 161.789 49.9665C161.401 49.941 161.07 49.8439 160.797 49.6704C160.524 49.4969 160.314 49.2633 160.169 48.9648C160.025 48.6664 159.952 48.3194 159.952 47.9239C159.952 47.4982 160.034 47.1351 160.198 46.8343C160.363 46.5336 160.599 46.3023 160.908 46.1404C161.217 45.9784 161.589 45.8975 162.021 45.8975C162.458 45.8975 162.832 45.9784 163.139 46.1427C163.448 46.3069 163.682 46.5382 163.843 46.8413C164.003 47.1466 164.085 47.5075 164.085 47.9262ZM163.406 47.9262C163.406 47.4543 163.286 47.0842 163.042 46.8135C162.798 46.5429 162.458 46.4087 162.016 46.4087C161.572 46.4087 161.227 46.5405 160.983 46.8066C160.739 47.0726 160.618 47.445 160.618 47.9239C160.618 48.2408 160.674 48.5161 160.785 48.7474C160.896 48.9787 161.055 49.1592 161.263 49.2864C161.471 49.4136 161.719 49.4761 162.009 49.4761C162.458 49.4761 162.803 49.3419 163.044 49.0713C163.286 48.8029 163.406 48.4212 163.406 47.9262Z" fill="white"/>
<path d="M165.528 45.9599V49.9317H164.867V45.9599H165.528ZM165.514 44.9443V45.4625H164.886V44.9443H165.514Z" fill="white"/>
<path d="M169.299 49.4228V49.9294H166.499V45.9575H167.16V49.4205H169.299V49.4228Z" fill="white"/>
<path d="M170.67 48.8167L170.228 49.9294H169.552L171.182 45.9575H171.95L173.562 49.9294H172.893L172.454 48.8167H170.67ZM171.561 46.4341C171.532 46.5289 171.496 46.6376 171.455 46.7602C171.414 46.8805 171.375 46.9823 171.344 47.0609L170.846 48.3332H172.278L171.771 47.0424C171.744 46.973 171.711 46.8851 171.674 46.7787C171.638 46.67 171.6 46.5543 171.561 46.4341Z" fill="white"/>
<path d="M177.449 48.8051C177.449 49.1614 177.311 49.439 177.038 49.6356C176.765 49.8322 176.384 49.9294 175.899 49.9294H174.086V45.9575H175.72C176.213 45.9575 176.582 46.0385 176.833 46.2027C177.082 46.367 177.207 46.6099 177.207 46.9337C177.207 47.165 177.14 47.3594 177.004 47.519C176.869 47.6786 176.674 47.785 176.42 47.8382C176.751 47.8752 177.007 47.9793 177.183 48.1505C177.362 48.3217 177.449 48.5391 177.449 48.8051ZM176.541 47.017C176.541 46.8134 176.471 46.67 176.329 46.5821C176.189 46.4965 175.981 46.4526 175.708 46.4526H174.75V47.6184H175.711C175.993 47.6184 176.201 47.5699 176.338 47.4681C176.473 47.3709 176.541 47.2182 176.541 47.017ZM176.78 48.7589C176.78 48.324 176.459 48.1042 175.814 48.1042H174.75V49.4367H175.855C176.176 49.4367 176.411 49.3788 176.558 49.2655C176.705 49.1521 176.78 48.9833 176.78 48.7589Z" fill="white"/>
<path d="M178.921 45.96V49.9318H178.26V45.96H178.921Z" fill="white"/>
<path d="M180.478 47.3919V49.9318H179.889V45.96H180.654L182.759 49.2587C182.733 48.9163 182.718 48.6526 182.718 48.4675V45.9623H183.312V49.9342H182.52L180.442 46.6586C180.449 46.7927 180.456 46.92 180.466 47.0426C180.476 47.1605 180.478 47.2785 180.478 47.3919Z" fill="white"/>
<path d="M184.944 45.96V49.9318H184.282V45.96H184.944Z" fill="white"/>
<path d="M186.503 47.3919V49.9318H185.914V45.96H186.68L188.785 49.2587C188.758 48.9163 188.743 48.6526 188.743 48.4675V45.9623H189.337V49.9342H188.546L186.467 46.6586C186.474 46.7927 186.482 46.92 186.491 47.0426C186.498 47.1605 186.503 47.2785 186.503 47.3919Z" fill="white"/>
<path d="M93.1599 55.0027V58.4657H92.4985V55.0027H91.1008V54.4961H94.5528V55.0027H93.1599Z" fill="white"/>
<path d="M98.1978 56.1478C98.1519 55.7708 98.0168 55.4747 97.7923 55.2619C97.5678 55.049 97.2733 54.9426 96.9136 54.9426C96.6311 54.9426 96.397 55.0005 96.2087 55.1161C96.0204 55.2318 95.8732 55.3984 95.7693 55.6158L95.1538 55.4377C95.2986 55.1138 95.5183 54.8663 95.8152 54.6951C96.1097 54.5239 96.4766 54.436 96.916 54.436C97.3433 54.436 97.7078 54.5263 98.0095 54.7067C98.292 54.8709 98.5068 55.1023 98.6565 55.4053C98.8061 55.706 98.881 56.0599 98.881 56.4648C98.881 56.8788 98.8013 57.242 98.642 57.552C98.4827 57.8643 98.2557 58.1049 97.9564 58.2714C97.6595 58.4403 97.3095 58.5236 96.9087 58.5236C96.5032 58.5236 96.1508 58.4403 95.8538 58.2737C95.5569 58.1095 95.3276 57.8689 95.1707 57.5589C95.0138 57.249 94.9365 56.8835 94.9365 56.4648C94.9365 56.4185 94.9389 56.3676 94.9413 56.3144C94.9438 56.2612 94.9486 56.2057 94.9534 56.1478H98.1978ZM96.9087 58.0355C97.3119 58.0355 97.6233 57.9175 97.8478 57.6792C98.0723 57.441 98.193 57.1032 98.2147 56.666H95.5883C95.6173 57.0986 95.7476 57.434 95.9794 57.6746C96.2111 57.9152 96.5225 58.0355 96.9087 58.0355Z" fill="white"/>
<path d="M100.274 56.6729V58.468H99.6125V54.4961H100.274V56.1431H102.372V54.4961H103.036V58.468H102.372V56.6729H100.274Z" fill="white"/>
<path d="M106.763 57.9589V58.4655H103.962V54.4937H104.624V57.9566H106.763V57.9589Z" fill="white"/>
<path d="M108.124 54.496V58.4679H107.463V54.496H108.124ZM108.11 53.4805V53.9986H107.482V53.4805H108.11Z" fill="white"/>
<path d="M111.895 57.9589V58.4655H109.094V54.4937H109.756V57.9566H111.895V57.9589Z" fill="white"/>
<path d="M113.259 54.496V58.4679H112.597V54.496H113.259ZM113.242 53.4805V53.9986H112.614V53.4805H113.242Z" fill="white"/>
<path d="M119.424 54.4961L117.79 58.468H117.111L115.472 54.4961H116.167L117.217 57.2096C117.259 57.3137 117.297 57.4247 117.336 57.5473C117.372 57.6676 117.413 57.7948 117.456 57.929C117.505 57.774 117.546 57.6352 117.584 57.5149C117.623 57.3946 117.659 57.2928 117.691 57.2096L118.736 54.4961H119.424Z" fill="white"/>
<path d="M122.985 56.1478C122.939 55.7708 122.804 55.4747 122.579 55.2619C122.355 55.049 122.06 54.9426 121.7 54.9426C121.418 54.9426 121.184 55.0005 120.996 55.1161C120.807 55.2318 120.66 55.3984 120.556 55.6158L119.941 55.4377C120.085 55.1138 120.305 54.8663 120.602 54.6951C120.897 54.5239 121.264 54.436 121.703 54.436C122.13 54.436 122.495 54.5263 122.796 54.7067C123.079 54.8709 123.294 55.1023 123.443 55.4053C123.593 55.706 123.668 56.0599 123.668 56.4648C123.668 56.8788 123.588 57.242 123.429 57.552C123.27 57.8643 123.043 58.1049 122.743 58.2714C122.446 58.4403 122.096 58.5236 121.696 58.5236C121.29 58.5236 120.938 58.4403 120.641 58.2737C120.344 58.1095 120.114 57.8689 119.958 57.5589C119.801 57.249 119.723 56.8835 119.723 56.4648C119.723 56.4185 119.726 56.3676 119.728 56.3144C119.731 56.2612 119.735 56.2057 119.74 56.1478H122.985ZM121.696 58.0355C122.099 58.0355 122.41 57.9175 122.635 57.6792C122.859 57.441 122.98 57.1032 123.002 56.666H120.375C120.404 57.0986 120.534 57.434 120.766 57.6746C120.998 57.9152 121.309 58.0355 121.696 58.0355Z" fill="white"/>
<path d="M126.736 56.9713V58.468H126.074V54.4961H126.736V56.423L128.691 54.4961H129.469L127.704 56.2079L129.674 58.468H128.867L127.267 56.5827L126.736 56.9713Z" fill="white"/>
<path d="M134.147 56.4621C134.147 56.8831 134.062 57.2486 133.893 57.5563C133.724 57.8639 133.483 58.1022 133.174 58.2711C132.865 58.4399 132.498 58.5232 132.073 58.5232C131.648 58.5232 131.281 58.4399 130.972 58.2757C130.663 58.1115 130.427 57.8732 130.26 57.5655C130.094 57.2579 130.012 56.89 130.012 56.4644C130.012 56.0388 130.094 55.6756 130.258 55.3749C130.422 55.0741 130.659 54.8428 130.968 54.6809C131.277 54.519 131.648 54.438 132.08 54.438C132.51 54.438 132.88 54.519 133.188 54.6786C133.497 54.8382 133.734 55.0695 133.901 55.3725C134.065 55.6733 134.147 56.0365 134.147 56.4621ZM133.471 56.4621C133.471 55.9902 133.35 55.6201 133.106 55.3494C132.863 55.0788 132.522 54.9446 132.08 54.9446C131.636 54.9446 131.291 55.0765 131.047 55.3425C130.803 55.6085 130.683 55.9809 130.683 56.4598C130.683 56.7767 130.738 57.052 130.849 57.2833C130.96 57.5146 131.12 57.6951 131.33 57.82C131.537 57.9449 131.786 58.0097 132.076 58.0097C132.525 58.0097 132.87 57.8755 133.111 57.6048C133.35 57.3388 133.471 56.9571 133.471 56.4621Z" fill="white"/>
<path d="M138.832 56.4621C138.832 56.8831 138.748 57.2486 138.579 57.5563C138.41 57.8639 138.169 58.1022 137.86 58.2711C137.551 58.4399 137.184 58.5232 136.759 58.5232C136.334 58.5232 135.967 58.4399 135.658 58.2757C135.349 58.1115 135.112 57.8732 134.946 57.5655C134.779 57.2579 134.697 56.89 134.697 56.4644C134.697 56.0388 134.779 55.6756 134.943 55.3749C135.108 55.0741 135.344 54.8428 135.653 54.6809C135.962 54.519 136.334 54.438 136.766 54.438C137.196 54.438 137.565 54.519 137.874 54.6786C138.183 54.8382 138.42 55.0695 138.586 55.3725C138.75 55.6733 138.832 56.0365 138.832 56.4621ZM138.156 56.4621C138.156 55.9902 138.036 55.6201 137.792 55.3494C137.548 55.0788 137.208 54.9446 136.766 54.9446C136.322 54.9446 135.977 55.0765 135.733 55.3425C135.489 55.6085 135.368 55.9809 135.368 56.4598C135.368 56.7767 135.424 57.052 135.535 57.2833C135.646 57.5146 135.805 57.6951 136.015 57.82C136.223 57.9449 136.472 58.0097 136.761 58.0097C137.21 58.0097 137.555 57.8755 137.797 57.6048C138.036 57.3388 138.156 56.9571 138.156 56.4621Z" fill="white"/>
<path d="M140.235 56.8672V58.468H139.573V54.4961H141.563C142.038 54.4961 142.407 54.5956 142.666 54.7968C142.924 54.9981 143.054 55.2826 143.054 55.6481C143.054 55.9373 142.968 56.1825 142.794 56.3837C142.62 56.585 142.381 56.7145 142.077 56.77L143.235 58.468H142.477L141.439 56.8672H140.235ZM142.386 55.662C142.386 55.4445 142.308 55.278 142.159 55.1669C142.007 55.0536 141.785 54.9981 141.495 54.9981H140.235V56.3675H141.517C141.794 56.3675 142.009 56.3051 142.159 56.1825C142.311 56.0575 142.386 55.8841 142.386 55.662Z" fill="white"/>
<path d="M147.532 56.4439C147.532 56.8649 147.448 57.2258 147.276 57.5288C147.105 57.8318 146.868 58.0632 146.567 58.2251C146.262 58.387 145.912 58.468 145.514 58.468H143.923V54.4961H145.335C146.038 54.4961 146.579 54.665 146.96 55.0027C147.341 55.3404 147.532 55.8193 147.532 56.4439ZM146.866 56.4439C146.866 55.9743 146.733 55.6157 146.47 55.3682C146.207 55.1207 145.823 54.9981 145.326 54.9981H144.587V57.966H145.449C145.736 57.966 145.987 57.9035 146.2 57.7809C146.412 57.6583 146.576 57.4802 146.692 57.2535C146.808 57.0245 146.866 56.7562 146.866 56.4439Z" fill="white"/>
<path d="M148.978 54.496V58.4679H148.317V54.496H148.978ZM148.964 53.4805V53.9986H148.336V53.4805H148.964Z" fill="white"/>
<path d="M150.535 55.928V58.468H149.946V54.4961H150.712L152.816 57.7948C152.79 57.4524 152.775 57.1887 152.775 57.0037V54.4984H153.369V58.4703H152.578L150.499 55.1947C150.506 55.3289 150.514 55.4561 150.523 55.5787C150.533 55.6967 150.535 55.8147 150.535 55.928Z" fill="white"/>
<path d="M155.011 57.3528L154.569 58.4655H153.893L155.522 54.4937H156.29L157.903 58.4655H157.234L156.795 57.3528H155.011ZM155.901 54.9702C155.873 55.065 155.836 55.1737 155.795 55.2964C155.754 55.4166 155.716 55.5184 155.684 55.5971L155.187 56.8694H156.618L156.112 55.5786C156.085 55.5092 156.051 55.4213 156.015 55.3149C155.979 55.2061 155.94 55.0905 155.901 54.9702Z" fill="white"/>
<path d="M161.719 57.3531C161.719 57.7278 161.569 58.0147 161.27 58.2182C160.971 58.4218 160.541 58.5236 159.986 58.5236C158.965 58.5236 158.371 58.1789 158.207 57.4872L158.849 57.3739C158.909 57.6029 159.035 57.7718 159.228 57.8782C159.419 57.9846 159.679 58.0378 160.012 58.0378C160.355 58.0378 160.618 57.9823 160.799 57.8735C160.98 57.7648 161.072 57.6029 161.072 57.3924C161.072 57.2675 161.041 57.168 160.976 57.087C160.913 57.0084 160.821 56.9436 160.703 56.8927C160.606 56.8488 160.488 56.8118 160.343 56.7771C160.201 56.7424 160.034 56.7077 159.848 56.666C159.633 56.6198 159.46 56.5758 159.322 56.5342C159.184 56.4948 159.073 56.4509 158.986 56.4069C158.9 56.363 158.825 56.3167 158.757 56.2681C158.644 56.1825 158.557 56.0761 158.494 55.9535C158.431 55.8309 158.402 55.6852 158.402 55.5163C158.402 55.1693 158.54 54.901 158.815 54.7159C159.09 54.5309 159.484 54.436 160 54.436C160.486 54.436 160.855 54.5077 161.108 54.6512C161.359 54.7946 161.531 55.0375 161.623 55.3775L160.976 55.477C160.92 55.2804 160.814 55.1346 160.657 55.0421C160.5 54.9496 160.278 54.9033 159.993 54.9033C159.684 54.9033 159.45 54.9519 159.291 55.0467C159.129 55.1416 159.049 55.2873 159.049 55.477C159.049 55.5927 159.081 55.6898 159.146 55.7638C159.209 55.8402 159.303 55.9026 159.423 55.9558C159.539 56.0067 159.783 56.0715 160.155 56.1502C160.326 56.1872 160.486 56.2242 160.638 56.2635C160.79 56.3005 160.925 56.3445 161.046 56.3954C161.128 56.4278 161.205 56.4648 161.277 56.5087C161.35 56.5527 161.41 56.6012 161.463 56.6568C161.545 56.7424 161.61 56.8395 161.656 56.9552C161.695 57.0732 161.719 57.205 161.719 57.3531Z" fill="white"/>
<path d="M163.148 54.496V58.4679H162.487V54.496H163.148ZM163.134 53.4805V53.9986H162.506V53.4805H163.134Z" fill="white"/>
<path d="M165.992 56.8279V58.468H165.331V56.8279L163.778 54.4961H164.493L165.664 56.3166L166.837 54.4961H167.551L165.992 56.8279Z" fill="white"/>
<path d="M168.367 57.3528L167.925 58.4655H167.25L168.879 54.4937H169.647L171.259 58.4655H170.59L170.151 57.3528H168.367ZM169.258 54.9702C169.229 55.065 169.193 55.1737 169.152 55.2964C169.111 55.4166 169.072 55.5184 169.041 55.5971L168.543 56.8694H169.975L169.468 55.5786C169.441 55.5092 169.408 55.4213 169.371 55.3149C169.335 55.2061 169.297 55.0905 169.258 54.9702Z" fill="white"/>
<path d="M173.75 55.9002V58.468H173.161V54.4961H174.04L175.023 57.0731C175.059 57.1887 175.095 57.309 175.131 57.4363C175.167 57.5635 175.194 57.6653 175.213 57.7439C175.23 57.6861 175.249 57.6144 175.274 57.5334C175.298 57.4501 175.324 57.3692 175.348 57.2905C175.375 57.2119 175.394 57.1517 175.406 57.1101L176.384 54.4961H177.248V58.468H176.654V55.9002C176.654 55.7846 176.657 55.6504 176.662 55.5024C176.666 55.3543 176.674 55.2016 176.683 55.0467C176.625 55.2433 176.575 55.4145 176.531 55.5602C176.485 55.7082 176.444 55.8285 176.408 55.9257L175.447 58.468H174.977L174.006 55.9257L173.726 55.0467C173.731 55.2132 173.738 55.3682 173.743 55.5093C173.746 55.6504 173.75 55.7823 173.75 55.9002Z" fill="white"/>
<path d="M181.243 56.1478C181.198 55.7708 181.062 55.4747 180.838 55.2619C180.613 55.049 180.319 54.9426 179.959 54.9426C179.677 54.9426 179.443 55.0005 179.254 55.1161C179.066 55.2318 178.919 55.3984 178.815 55.6158L178.199 55.4377C178.344 55.1138 178.564 54.8663 178.861 54.6951C179.155 54.5239 179.522 54.436 179.962 54.436C180.389 54.436 180.753 54.5263 181.055 54.7067C181.338 54.8709 181.552 55.1023 181.702 55.4053C181.852 55.706 181.927 56.0599 181.927 56.4648C181.927 56.8788 181.847 57.242 181.688 57.552C181.528 57.8643 181.301 58.1049 181.002 58.2714C180.705 58.4403 180.355 58.5236 179.954 58.5236C179.549 58.5236 179.196 58.4403 178.899 58.2737C178.603 58.1095 178.373 57.8689 178.216 57.5589C178.059 57.2466 177.982 56.8835 177.982 56.4648C177.982 56.4185 177.985 56.3676 177.987 56.3144C177.989 56.2612 177.994 56.2057 177.999 56.1478H181.243ZM179.957 58.0355C180.358 58.0355 180.671 57.9175 180.896 57.6792C181.12 57.441 181.241 57.1032 181.263 56.666H178.634C178.663 57.0986 178.793 57.434 179.025 57.6746C179.257 57.9152 179.568 58.0355 179.957 58.0355Z" fill="white"/>
<path d="M183.319 56.8672V58.468H182.658V54.4961H184.647C185.123 54.4961 185.492 54.5956 185.75 54.7968C186.008 54.9981 186.139 55.2826 186.139 55.6481C186.139 55.9373 186.052 56.1825 185.878 56.3837C185.704 56.585 185.465 56.7145 185.161 56.77L186.32 58.468H185.562L184.524 56.8672H183.319ZM185.47 55.662C185.47 55.4445 185.393 55.278 185.243 55.1669C185.091 55.0536 184.869 54.9981 184.579 54.9981H183.319V56.3675H184.601C184.879 56.3675 185.094 56.3051 185.243 56.1825C185.395 56.0575 185.47 55.8841 185.47 55.662Z" fill="white"/>
<path d="M187.669 56.9713V58.468H187.008V54.4961H187.669V56.423L189.625 54.4961H190.402L188.637 56.2079L190.607 58.468H189.801L188.2 56.5827L187.669 56.9713Z" fill="white"/>
<path d="M194.204 56.1478C194.158 55.7708 194.023 55.4747 193.798 55.2619C193.574 55.049 193.279 54.9426 192.92 54.9426C192.637 54.9426 192.403 55.0005 192.215 55.1161C192.026 55.2318 191.879 55.3984 191.775 55.6158L191.16 55.4377C191.305 55.1138 191.524 54.8663 191.821 54.6951C192.116 54.5239 192.483 54.436 192.922 54.436C193.349 54.436 193.714 54.5263 194.016 54.7067C194.298 54.8709 194.513 55.1023 194.663 55.4053C194.812 55.706 194.887 56.0599 194.887 56.4648C194.887 56.8788 194.807 57.242 194.648 57.552C194.489 57.8643 194.262 58.1049 193.962 58.2714C193.666 58.4403 193.316 58.5236 192.915 58.5236C192.509 58.5236 192.157 58.4403 191.86 58.2737C191.563 58.1095 191.334 57.8689 191.177 57.5589C191.02 57.2466 190.943 56.8835 190.943 56.4648C190.943 56.4185 190.945 56.3676 190.947 56.3144C190.95 56.2612 190.955 56.2057 190.96 56.1478H194.204ZM192.915 58.0355C193.316 58.0355 193.629 57.9175 193.854 57.6792C194.078 57.441 194.199 57.1032 194.221 56.666H191.594C191.623 57.0986 191.754 57.434 191.985 57.6746C192.217 57.9152 192.526 58.0355 192.915 58.0355Z" fill="white"/>
<path d="M198.651 57.9567V58.468H195.341V58.003L197.77 55.0073H195.558V54.4961H198.518V54.9495L196.089 57.9567H198.651Z" fill="white"/>
<path d="M200 54.496V58.4679H199.339V54.496H200ZM199.986 53.4805V53.9986H199.358V53.4805H199.986Z" fill="white"/>
<path d="M101.94 36.552V39.8323H98.7435V36.552H91.1008V34.1416L98.1955 23.7319H101.94V34.1624H104.182V36.5497H101.94V36.552ZM93.831 34.1624H98.7435V28.8951C98.7435 28.4834 98.7579 28.0392 98.7845 27.5581C98.811 27.0792 98.8352 26.7693 98.8497 26.6328C98.7459 26.8456 98.601 27.107 98.4152 27.4147C98.2293 27.7223 98 28.0786 97.7296 28.4834L93.831 34.1624Z" fill="#2966D3"/>
<path d="M120.134 35.1917C120.134 36.7694 119.523 37.9746 118.304 38.8073C117.085 39.6424 115.294 40.0588 112.933 40.0588C108.679 40.0588 106.205 38.5853 105.505 35.6358L108.904 35.0992C109.133 35.9528 109.584 36.5704 110.251 36.9567C110.919 37.3407 111.844 37.5327 113.029 37.5327C114.26 37.5327 115.183 37.3546 115.796 36.996C116.409 36.6375 116.713 36.1008 116.713 35.386C116.713 34.928 116.573 34.5509 116.295 34.2548C116.018 33.9587 115.619 33.7112 115.103 33.5123C114.847 33.4128 114.475 33.3041 113.983 33.1861C113.49 33.0681 112.877 32.9363 112.146 32.7928C111.303 32.6032 110.644 32.4412 110.166 32.3071C109.688 32.1729 109.309 32.0433 109.022 31.9184C108.737 31.7935 108.457 31.6547 108.187 31.502C107.591 31.1597 107.125 30.7017 106.792 30.1303C106.458 29.5589 106.292 28.8464 106.292 27.9928C106.292 26.5378 106.862 25.4251 108.003 24.6502C109.145 23.8775 110.804 23.4912 112.981 23.4912C115.064 23.4912 116.628 23.8035 117.674 24.4281C118.719 25.0527 119.392 26.0844 119.694 27.5255L116.283 27.972C116.107 27.278 115.752 26.7575 115.216 26.4059C114.68 26.0543 113.91 25.8808 112.909 25.8808C111.844 25.8808 111.045 26.0404 110.511 26.362C109.978 26.6812 109.712 27.1624 109.712 27.8008C109.712 28.2195 109.826 28.5619 110.053 28.8302C110.28 29.0962 110.615 29.3253 111.059 29.515C111.479 29.6977 112.382 29.929 113.765 30.2112C114.567 30.3801 115.26 30.5374 115.839 30.6855C116.418 30.8335 116.884 30.9769 117.234 31.1134C117.584 31.2592 117.896 31.4095 118.171 31.5714C118.446 31.7311 118.68 31.9022 118.881 32.085C119.286 32.4574 119.595 32.9016 119.81 33.4151C120.025 33.9287 120.134 34.5209 120.134 35.1917Z" fill="#2966D3"/>
<path d="M126.236 23.7318V39.8298H122.719V23.7318H126.236ZM126.178 19.79V22.1542H122.828V19.79H126.178Z" fill="#2966D3"/>
<path d="M133.116 30.0725V39.8298H129.992V23.7318H134.702L137.708 32.735C137.843 33.237 137.983 33.7436 138.125 34.2502C138.268 34.7568 138.408 35.2611 138.543 35.7631C138.63 35.4739 138.714 35.1871 138.794 34.9002C138.873 34.6134 138.956 34.3266 139.038 34.0374C139.122 33.7482 139.207 33.4614 139.293 33.1792L142.381 23.7295H147.066V39.8275H143.943V30.0725C143.943 29.8527 143.952 29.4086 143.972 28.7423C143.991 28.0761 144.022 27.3497 144.061 26.5656C143.783 27.5857 143.537 28.4555 143.327 29.1703C143.117 29.8874 142.943 30.4472 142.808 30.8497L139.779 39.8298H137.275L134.246 30.8497L132.969 26.5656C133.017 27.4492 133.053 28.1825 133.078 28.7655C133.102 29.3484 133.116 29.7833 133.116 30.0725Z" fill="#2966D3"/>
</g>
<defs>
<clipPath id="clip0_3483_3032">
<rect width="200" height="78.3133" fill="white"/>
</clipPath>
</defs>
</svg>
